<?xml version="1.0" encoding="utf-8"?>
<!-- Generator: Adobe Illustrator 19.0.0, SVG Export Plug-In . SVG Version: 6.00 Build 0)  -->
<svg version="1.1" id="Layer_1" xmlns="http://www.w3.org/2000/svg" xmlns:xlink="http://www.w3.org/1999/xlink" x="0px" y="0px"
	 viewBox="0 0 612 792" style="enable-background:new 0 0 612 792;" xml:space="preserve">
<style type="text/css">
	.st0{opacity:0.3;fill:#FFFFFF;stroke:#010101;stroke-miterlimit:10;}
</style>
<path id="XMLID_1_" className="st0" d="M12.7,213.7L6.1,186l11-13.5l25.5,3.9l18.5-11.9l17.2-0.4l20.9-14.2l14.3-4.8l-4.8,19.5
	l18.5,12.1l19.1,4.5l9.7,13.5l43-0.6l11.3-5.3l26.2-13l15.9-6.9l5.9-3.1l8.4,22.2l18.6,21.1l9.7,4.6l22.2,22.1l9.7,0.5l10.6-4.5
	l7.9,18.1l11,12.3l8.8,6.2l26.4-1.3l30.4-6.4l31.5-0.9l8.8-9.6l19-19.8l17.9-3.1l20.5-3.6l13.9-1.5l17.2,8l8.2-1.2l-13.5,50.5
	l-5.7,17l16.4,13.9l3.1,10.8l-2.2,6l4.9,7.4l20.2,8.3l9.1,1.9l15.5,5.2l-1.1,5l-0.4,7.7l-28.3,3.5l-7.7,4.2l-10.7,4.1l-7.4,7.6
	L547,391c0,0-15.1,1.2-17.7,9.4s-21.8,16.4-19.1,19.1c2.7,2.7,1.5,13.5,1.5,13.5l-8-25.7l-8.1-9.9l-21.5,4.3l-9.9-4.3l-23.1,10.2
	l-12.6,3.7l-6.6,5.3l-10.2,2.2c0,0,10.3,2.4,9.1,8.2s7.8,7.2,7.8,7.2l9.2,4.1l1.7,6.6c0,0-13.4-1.5-12,2.4c1.5,3.9-9.8,6-9.8,6
	l-7.2,5.6c0,0,2,1.8-5.2,0.3c-7.1-1.5-11-9.1-11.1-11.4c-0.1-2.4,4,2.7-0.1-2.4c-4.1-5.1-16.6-11.9-16.6-11.9
	c3.3,19.1,6.4,12.6,4.3,21.3c-2.1,8.7,5.1,16.3,5.1,16.3l5,10.2c0,0,7.6,3.2,11.7,7.3c4.1,4.1,10,4.9,11.8,7.7
	c1.8,2.8-14.4,6.8-14.4,6.8s18.4,9.4,28.1,12.8c9.7,3.5,14,1.8,18.2,5.3c4.2,3.5,7.4,1.7,14.7,10.4c7.3,8.6,6.5,3.3,7.3,8.6
	s-0.8,11.2-0.8,11.2l-13.5-5.1l-5.1,11.3c2.8,6.4,0.6,11.6,0.6,11.6c-11.1-5.4-11.1-5.4-11.1-5.4l-9.2-4.6
	c-6.5-1.2-13.1,9.1-13.1,9.1l8.2,6.9c7.1,4.4,7.9,8,7.9,8l-1.2,5.7l-13.4-2.1l-8.7-3.3c0,0-8.4,4-4.2,10.1
	c4.2,6.1,7.7,11.5,7.7,11.5s9.3,9.5,8.7,14.6c-0.6,5.1,9.9,21.6,9.9,21.6c-8.4-6.9-19.6-15.3-19.6-15.3l-3.9-5l-6.9,16.8l0.4,5.5
	c0,0-2.7,7.1-5.6-3.6c-2.9-10.7-2-16-2-16l-10.3-3.7c-1.7-5.1-7.5-3.3-7.5-3.3s5.4-3.2-0.6,4.2c-6,7.5-6,7.5-6,7.5L363,619
	c0,0,1.6-0.1-2.6-6.6c-4.2-6.4-11.8-6.3-8.5-10.4c3.3-4.2,3.3-10.1,3.3-10.1s3.7,2.8-7.7-4.1c-11.5-7-18.1-1.3-18.1-1.3l-3.1-3.9
	c0,0,0.8,3.6-4.7,1.9c-5.5-1.7-5.5-1.7-5.5-1.7l2.8-3.9l-13.1-11.7c0,0-4.1,2.2-5.9-2.6c-1.9-4.8,0.4-12,0.4-12l8.2-7.4l0.5-10.3
	l0.3-13.6l-6,2.4l-14.4-7.5L277.3,503l-4.1-7.5c0,0,7.3,0.5-0.4-6.9c-7.7-7.4-7.3-7.1-12.1-12.4c-4.8-5.3-7.3-12.2-7.3-12.2
	s2.6,0.2-0.5-5.7c-3.1-5.9-6.4-6.6-6-11.6s-0.8-0.4,0.4-10c1.1-9.6-2.4-23-2.4-23l0.3-11.8c0,0,12-6.3,4.1-10.9
	c-7.9-4.6-24.4-15.8-24.4-15.8l-18.7-11.2c0,0,7.9-6,0.5-7.1c-7.4-1-4.5-0.1-18.6-5.4s-36-17-36-17s-2.3,7.1-6.4-0.1
	c-4.1-7.2,7-13.9-9.6-12.1c-16.6,1.8-15.2,5.9-19.4,1.4c-4.2-4.5-12-12-12-12l-3.6-4.6c0,0-9.9,8.6-15.1-8.2
	c-5.2-16.8-8.2-21.3-8.2-21.3L61.5,267c0,0-4.2-3.3-4.6-9.6c-0.4-6.3-2.7-13.9-2.7-13.9L44.6,232c0,0-7.8,10.2-8,13.1
	c-0.3,3,1,8-6,9.9s-7,1.9-7,1.9l-6.8-13.5l3.7-10.4l-1.9-5.8l2.4-7.6L12.7,213.7z"/>
</svg>
