<?xml version="1.0" encoding="utf-8"?>
<!-- Generator: Adobe Illustrator 19.0.0, SVG Export Plug-In . SVG Version: 6.00 Build 0)  -->
<svg version="1.1" id="Layer_1" xmlns="http://www.w3.org/2000/svg" xmlns:xlink="http://www.w3.org/1999/xlink" x="0px" y="0px"
	 viewBox="0 0 612 792" style="enable-background:new 0 0 612 792;" xml:space="preserve">
<style type="text/css">
	.st0{fill:#FFFFFF;stroke:#010101;stroke-miterlimit:10;}
</style>
<polygon id="XMLID_1_" className="st0" points="16.5,601.3 9.2,616.1 5.7,631.4 13.7,632.1 22.1,638 42.5,643.6 48.1,650.9 57.9,644.5 
	73.8,651 80.3,637.5 98.5,635.9 115.2,637.8 127,628.9 130.9,643 141.5,648.9 158.3,658.5 163.1,659.6 173.7,658.6 195.1,662.2 
	204.2,663.4 216.1,667.4 228.2,667.2 242.9,661.1 246.9,653.4 259.8,650.2 269.1,649.1 281.7,644.4 295.9,641.7 301.7,632.8 
	314.6,622.9 309,631.9 310.9,643.6 323.2,656.4 330.8,660.5 338.1,667.6 352.5,668.1 351.2,674.5 362.3,684.5 370.9,687 
	392.8,695.2 414.3,691.5 419.6,687.2 432.2,681.3 445.6,674.3 457.7,663.1 476.9,657.9 500.7,657.6 508.3,653.5 516.8,645.4 
	530.9,644.1 534.4,627.7 540.1,617.4 543.6,606.2 548.1,592.9 552.7,576.1 562.6,560.8 567.4,539.8 580.4,536.3 593.6,519.5 
	581.9,512.3 562.6,499.6 550.4,486.6 556.8,478.6 556.7,462.1 562.6,452.3 573.4,452.5 567.4,429.4 567.4,418.1 576,398.4 
	580.7,380.9 590.3,368.8 593.7,358.7 606.4,342.9 604.4,325.9 602.6,320.4 590.3,309 584.9,295.9 572.1,283 571.7,271.4 
	573.2,249.9 557,241.4 550.2,234.3 567.4,217.9 575.9,204.9 571.4,184.8 562.6,159.2 550.2,135.7 541.6,122.9 530.2,113.2 
	514.3,102.6 500.7,111.8 480,113.2 454.9,114.9 446,117.1 433.5,117.1 421.1,118.1 405.2,119.7 394.8,121.6 378,125.9 359.3,125.3 
	352.5,115.6 362.3,108.6 328,96.8 307.3,107.1 300,113.2 275.3,127 265.7,137.6 249,144.1 229.8,161.7 205.2,188 194.2,190.5 
	201,224.9 201.2,252.9 210.6,278.9 220.6,322.5 232.7,358.5 228.6,374.3 209.9,365.5 189.3,382.5 175.9,387.5 160.3,402.5 
	143.9,406.5 129.7,417.2 117.6,415.9 135.5,442.2 137.8,462.1 146.1,479.3 164.8,493.8 180.8,502.1 192.7,515.3 192.3,528.3 
	174.3,543.9 160.1,550.9 148.3,560.4 160.3,577.4 149.8,589.4 138.4,592.4 125,593.9 107,594.4 97.2,600.9 78.8,609.8 69.8,604.9 
	60.3,599 49.5,597.4 42.5,604.6 26.6,599.9 "/>
</svg>
